<svg width="8" height="14" viewBox="0 0 8 14" fill="none" xmlns="http://www.w3.org/2000/svg">
<path fill-rule="evenodd" clip-rule="evenodd" d="M6.66667 0.333336C7.02029 0.333336 7.35943 0.473812 7.60948 0.72386C7.85952 0.973909 8 1.31305 8 1.66667C8 2.02029 7.85952 2.35943 7.60948 2.60948C7.35943 2.85953 7.02029 3 6.66667 3C6.31305 3 5.97391 2.85953 5.72386 2.60948C5.47381 2.35943 5.33333 2.02029 5.33333 1.66667C5.33333 1.31305 5.47381 0.973909 5.72386 0.72386C5.97391 0.473812 6.31305 0.333336 6.66667 0.333336ZM6.66667 5.66667C7.02029 5.66667 7.35943 5.80715 7.60948 6.05719C7.85952 6.30724 8 6.64638 8 7C8 7.35362 7.85952 7.69276 7.60948 7.94281C7.35943 8.19286 7.02029 8.33334 6.66667 8.33334C6.31305 8.33334 5.97391 8.19286 5.72386 7.94281C5.47381 7.69276 5.33333 7.35362 5.33333 7C5.33333 6.64638 5.47381 6.30724 5.72386 6.05719C5.97391 5.80715 6.31305 5.66667 6.66667 5.66667ZM1.33333 11C1.68696 11 2.02609 11.1405 2.27614 11.3905C2.52619 11.6406 2.66667 11.9797 2.66667 12.3333C2.66667 12.687 2.52619 13.0261 2.27614 13.2761C2.02609 13.5262 1.68696 13.6667 1.33333 13.6667C0.979711 13.6667 0.640573 13.5262 0.390524 13.2761C0.140476 13.0261 0 12.687 0 12.3333C0 11.9797 0.140476 11.6406 0.390524 11.3905C0.640573 11.1405 0.979711 11 1.33333 11ZM6.66667 11C7.02029 11 7.35943 11.1405 7.60948 11.3905C7.85952 11.6406 8 11.9797 8 12.3333C8 12.687 7.85952 13.0261 7.60948 13.2761C7.35943 13.5262 7.02029 13.6667 6.66667 13.6667C6.31305 13.6667 5.97391 13.5262 5.72386 13.2761C5.47381 13.0261 5.33333 12.687 5.33333 12.3333C5.33333 11.9797 5.47381 11.6406 5.72386 11.3905C5.97391 11.1405 6.31305 11 6.66667 11ZM1.33333 0.333336C1.68696 0.333336 2.02609 0.473812 2.27614 0.72386C2.52619 0.973909 2.66667 1.31305 2.66667 1.66667C2.66667 2.02029 2.52619 2.35943 2.27614 2.60948C2.02609 2.85953 1.68696 3 1.33333 3C0.979711 3 0.640573 2.85953 0.390524 2.60948C0.140476 2.35943 0 2.02029 0 1.66667C0 1.31305 0.140476 0.973909 0.390524 0.72386C0.640573 0.473812 0.979711 0.333336 1.33333 0.333336ZM1.33333 5.66667C1.68696 5.66667 2.02609 5.80715 2.27614 6.05719C2.52619 6.30724 2.66667 6.64638 2.66667 7C2.66667 7.35362 2.52619 7.69276 2.27614 7.94281C2.02609 8.19286 1.68696 8.33334 1.33333 8.33334C0.979711 8.33334 0.640573 8.19286 0.390524 7.94281C0.140476 7.69276 0 7.35362 0 7C0 6.64638 0.140476 6.30724 0.390524 6.05719C0.640573 5.80715 0.979711 5.66667 1.33333 5.66667Z" fill="#64748B"/>
</svg>
