<svg width="8" height="8" viewBox="0 0 8 8" fill="none" xmlns="http://www.w3.org/2000/svg">
<path d="M4 0.25C4.12432 0.25 4.24355 0.299386 4.33146 0.387294C4.41936 0.475201 4.46875 0.59443 4.46875 0.71875V3.53125H7.28125C7.40557 3.53125 7.5248 3.58064 7.61271 3.66854C7.70061 3.75645 7.75 3.87568 7.75 4C7.75 4.12432 7.70061 4.24355 7.61271 4.33146C7.5248 4.41936 7.40557 4.46875 7.28125 4.46875H4.46875V7.28125C4.46875 7.40557 4.41936 7.5248 4.33146 7.61271C4.24355 7.70061 4.12432 7.75 4 7.75C3.87568 7.75 3.75645 7.70061 3.66854 7.61271C3.58064 7.5248 3.53125 7.40557 3.53125 7.28125V4.46875H0.71875C0.59443 4.46875 0.475201 4.41936 0.387294 4.33146C0.299386 4.24355 0.25 4.12432 0.25 4C0.25 3.87568 0.299386 3.75645 0.387294 3.66854C0.475201 3.58064 0.59443 3.53125 0.71875 3.53125H3.53125V0.71875C3.53125 0.59443 3.58064 0.475201 3.66854 0.387294C3.75645 0.299386 3.87568 0.25 4 0.25Z" fill="#0F172A"/>
</svg>
